<svg width="800" height="500" viewBox="0 0 800 500" xmlns="http://www.w3.org/2000/svg">
  <defs>
    <linearGradient id="sky" x1="0" y1="0" x2="0" y2="1">
      <stop offset="0%" stop-color="#bae6fd"/>
      <stop offset="100%" stop-color="#ecfeff"/>
    </linearGradient>
    <linearGradient id="ground" x1="0" y1="0" x2="1" y2="0">
      <stop offset="0%" stop-color="#bbf7d0"/>
      <stop offset="100%" stop-color="#86efac"/>
    </linearGradient>
  </defs>
  <rect width="800" height="500" fill="url(#sky)"/>
  <rect y="360" width="800" height="140" fill="url(#ground)"/>
  <rect x="220" y="180" width="360" height="210" rx="12" fill="#ffffff" stroke="#94a3b8" stroke-width="4"/>
  <polygon points="200,200 400,80 600,200" fill="#16a34a"/>
  <rect x="360" y="270" width="80" height="120" rx="6" fill="#15803d"/>
  <rect x="260" y="240" width="60" height="55" rx="6" fill="#dcfce7"/>
  <rect x="480" y="240" width="60" height="55" rx="6" fill="#dcfce7"/>
  <circle cx="130" cy="110" r="34" fill="#fef08a"/>
  <path d="M90 350 C160 280, 240 280, 300 350" fill="none" stroke="#22c55e" stroke-width="6"/>
  <path d="M500 350 C560 300, 660 300, 740 350" fill="none" stroke="#22c55e" stroke-width="6"/>
</svg>
