<svg width="800" height="500" viewBox="0 0 800 500" xmlns="http://www.w3.org/2000/svg">
  <defs>
    <linearGradient id="bg" x1="0" y1="0" x2="1" y2="1">
      <stop offset="0%" stop-color="#ecfeff"/>
      <stop offset="100%" stop-color="#f0fdf4"/>
    </linearGradient>
    <linearGradient id="bar" x1="0" y1="1" x2="0" y2="0">
      <stop offset="0%" stop-color="#0ea5e9"/>
      <stop offset="100%" stop-color="#22c55e"/>
    </linearGradient>
  </defs>
  <rect width="800" height="500" fill="url(#bg)"/>
  <rect x="100" y="80" width="600" height="340" rx="18" fill="#ffffff" stroke="#99f6e4" stroke-width="4"/>
  <rect x="150" y="310" width="70" height="70" rx="8" fill="url(#bar)"/>
  <rect x="250" y="260" width="70" height="120" rx="8" fill="url(#bar)"/>
  <rect x="350" y="210" width="70" height="170" rx="8" fill="url(#bar)"/>
  <rect x="450" y="170" width="70" height="210" rx="8" fill="url(#bar)"/>
  <rect x="550" y="130" width="70" height="250" rx="8" fill="url(#bar)"/>
  <polyline points="150,240 260,220 360,190 460,150 560,120 650,95" fill="none" stroke="#16a34a" stroke-width="8" stroke-linecap="round"/>
  <circle cx="650" cy="95" r="10" fill="#16a34a"/>
  <circle cx="670" cy="130" r="18" fill="#0ea5e9"/>
  <circle cx="700" cy="170" r="12" fill="#22c55e"/>
  <text x="130" y="130" font-family="Segoe UI, Arial, sans-serif" font-size="26" font-weight="700" fill="#0f172a">AI Insights</text>
</svg>
